<svg
  xmlns="http://www.w3.org/2000/svg"
  width="48"
  height="48"
  viewBox="0 0 48 48"
  fill="none"
>
  <g transform="translate(5 0)">
    <path
      fill="#fff"
      fill-rule="evenodd"
      clip-rule="evenodd"
      d="m19 12.5c-4.1421 0-7.5-3.35786-7.5-7.5h-5c0 6.9036 5.5964 12.5 12.5 12.5s12.5-5.5964 12.5-12.5h-5c0 4.14214-3.3579 7.5-7.5 7.5zm-7.5 30.5c0-4.1421 3.3579-7.5 7.5-7.5s7.5 3.3579 7.5 7.5h5c0-6.9036-5.5964-12.5-12.5-12.5s-12.5 5.5964-12.5 12.5zm-4-19c0-4.1421-3.35786-7.5-7.5-7.5v-5c6.90356 0 12.5 5.5964 12.5 12.5s-5.59644 12.5-12.5 12.5v-5c4.14214 0 7.5-3.3579 7.5-7.5zm23 0c0-4.1421 3.3579-7.5 7.5-7.5v-5c-6.9036 0-12.5 5.5964-12.5 12.5s5.5964 12.5 12.5 12.5v-5c-4.1421 0-7.5-3.3579-7.5-7.5z"
    />
  </g>
</svg>
